<svg width="16" height="20" viewBox="0 0 16 20" fill="none" xmlns="http://www.w3.org/2000/svg">
<path d="M15.8765 8.56867C15.8374 8.6091 15.791 8.64117 15.7399 8.66305C15.6888 8.68493 15.634 8.69619 15.5786 8.69619C15.5233 8.69619 15.4685 8.68493 15.4174 8.66305C15.3663 8.64117 15.3199 8.6091 15.2807 8.56867L8.42099 1.4851V19.5652C8.42099 19.6805 8.37663 19.7911 8.29767 19.8727C8.21871 19.9542 8.11162 20 7.99995 20C7.88829 20 7.78119 19.9542 7.70223 19.8727C7.62327 19.7911 7.57891 19.6805 7.57891 19.5652V1.4851L0.719156 8.56867C0.680038 8.60907 0.633597 8.64111 0.582486 8.66297C0.531375 8.68483 0.476594 8.69609 0.421272 8.69609C0.36595 8.69609 0.311169 8.68483 0.260058 8.66297C0.208947 8.64111 0.162506 8.60907 0.123387 8.56867C0.0842687 8.52828 0.0532381 8.48032 0.0320672 8.42754C0.0108963 8.37477 0 8.3182 0 8.26107C0 8.20394 0.0108963 8.14737 0.0320672 8.0946C0.0532381 8.04182 0.0842687 7.99386 0.123387 7.95347L7.70207 0.127514C7.74117 0.0870898 7.78761 0.0550214 7.83872 0.0331417C7.88983 0.0112619 7.94462 0 7.99995 0C8.05528 0 8.11007 0.0112619 8.16119 0.0331417C8.2123 0.0550214 8.25873 0.0870898 8.29784 0.127514L15.8765 7.95347C15.9157 7.99385 15.9467 8.0418 15.9679 8.09458C15.9891 8.14736 16 8.20393 16 8.26107C16 8.31821 15.9891 8.37478 15.9679 8.42756C15.9467 8.48034 15.9157 8.52829 15.8765 8.56867Z" fill="black"/>
</svg>
