<svg width="32" height="32" viewBox="0 0 32 32" fill="none" xmlns="http://www.w3.org/2000/svg">
<path d="M16 28.84C15.12 28.84 14.3664 28.52 13.7392 27.88C13.112 27.24 12.7989 26.48 12.8 25.6C12.8 24.72 13.1136 23.9664 13.7408 23.3392C14.368 22.712 15.1211 22.3989 16 22.4L16.96 21.48C17.1733 21.2667 17.4203 21.0997 17.7008 20.9792C17.9813 20.8587 18.2677 20.7989 18.56 20.8C19.1733 20.8 19.7003 21.0267 20.1408 21.48C20.5813 21.9333 20.8011 22.4667 20.8 23.08V23.76C20.8 24.2933 20.9733 24.7333 21.32 25.08C21.6667 25.4267 22.1067 25.6 22.64 25.6C23.04 25.6 23.4 25.48 23.72 25.24C24.04 25 24.2667 24.6933 24.4 24.32L24.88 23C25.12 22.36 25.5067 21.8331 26.04 21.4192C26.5733 21.0053 27.1867 20.7989 27.88 20.8C28.1733 20.0533 28.4069 19.28 28.5808 18.48C28.7547 17.68 28.8411 16.8533 28.84 16C28.84 13.6267 28.2469 11.4597 27.0608 9.4992C25.8747 7.53867 24.3211 5.99893 22.4 4.88V6.4C22.4 7.28 22.0864 8.0336 21.4592 8.6608C20.832 9.288 20.0789 9.60107 19.2 9.6H17.6V12.8C17.6 13.2533 17.4464 13.6336 17.1392 13.9408C16.832 14.248 16.4523 14.4011 16 14.4H14.4V17.12C14.4 17.7067 14.2 18.2 13.8 18.6C13.4 19 12.9067 19.2 12.32 19.2C11.9467 19.2 11.6064 19.12 11.2992 18.96C10.992 18.8 10.7456 18.5733 10.56 18.28L8 14.4H6.4V16C6.4 16.8267 6.12 17.5333 5.56 18.12C5 18.7067 4.33333 19.0533 3.56 19.16C4.25333 21.9333 5.7536 24.24 8.0608 26.08C10.368 27.92 13.0144 28.84 16 28.84ZM19.2 19.2C18.7467 19.2 18.3664 19.0469 18.0592 18.7408C17.752 18.4347 17.5989 18.0544 17.6 17.6C17.6 17.1467 17.7536 16.7664 18.0608 16.4592C18.368 16.152 18.7477 15.9989 19.2 16H20.8C21.2533 16 21.6336 16.1536 21.9408 16.4608C22.248 16.768 22.4011 17.1477 22.4 17.6C22.4 18.0533 22.2464 18.4336 21.9392 18.7408C21.632 19.048 21.2523 19.2011 20.8 19.2H19.2ZM22.92 14.4C22.3867 14.4 21.9664 14.1936 21.6592 13.7808C21.352 13.368 21.2789 12.9077 21.44 12.4L22.04 10.64C22.1467 10.32 22.3333 10.0667 22.6 9.88C22.8667 9.69333 23.16 9.6 23.48 9.6C24.0133 9.6 24.4336 9.80693 24.7408 10.2208C25.048 10.6347 25.1211 11.0944 24.96 11.6L24.36 13.36C24.2533 13.68 24.0667 13.9333 23.8 14.12C23.5333 14.3067 23.24 14.4 22.92 14.4ZM16 32C13.7867 32 11.7067 31.5797 9.76 30.7392C7.81333 29.8987 6.12 28.7589 4.68 27.32C3.24 25.88 2.10027 24.1867 1.2608 22.24C0.421334 20.2933 0.00106667 18.2133 0 16C0 13.7867 0.420267 11.7067 1.2608 9.76C2.10133 7.81333 3.24107 6.12 4.68 4.68C6.12 3.24 7.81333 2.10027 9.76 1.2608C11.7067 0.421333 13.7867 0.00106667 16 0C18.2133 0 20.2933 0.420267 22.24 1.2608C24.1867 2.10133 25.88 3.24107 27.32 4.68C28.76 6.12 29.9003 7.81333 30.7408 9.76C31.5813 11.7067 32.0011 13.7867 32 16C32 18.2133 31.5797 20.2933 30.7392 22.24C29.8987 24.1867 28.7589 25.88 27.32 27.32C25.88 28.76 24.1867 29.9003 22.24 30.7408C20.2933 31.5813 18.2133 32.0011 16 32Z" fill="#484747"/>
</svg>
