<svg width="36" height="36" viewBox="0 0 36 36" fill="none" xmlns="http://www.w3.org/2000/svg">
<path d="M24.875 0.167618L23.973 1.15624C21.9531 3.37962 20.288 4.37374 18.902 5.02412C17.516 5.67312 16.3514 5.86699 15.2074 6.74287C13.9877 7.67787 12.2154 9.47087 11.4688 12.6719C9.86825 13.0211 8.69675 13.6344 7.77275 14.4332C6.85975 15.2225 6.17225 16.1204 5.32525 17.098C5.31838 17.109 5.32938 17.1296 5.32525 17.1406C4.10975 18.5376 3.04688 20.0419 0.984375 20.8366L0.125 21.1804V35.875H26.3366C27.8395 35.7939 28.8818 34.753 29.5156 33.7259C30.1481 32.7001 30.4987 31.5891 30.6761 30.6761C31.1326 28.3496 31.9645 21.652 31.9645 21.652L32.0085 21.5241V21.3949C31.9645 20.4654 31.5823 19.6761 31.1051 18.9446L32.652 14.348L35.1022 10.652L35.7897 9.66337L34.8864 8.84799L25.8636 1.02699L24.875 0.167618ZM24.9616 3.94887L32.1364 10.1804L30.2458 12.9716L30.1179 13.1022L30.0739 13.3167L28.8281 17.0114C28.1778 16.7432 27.5081 16.5549 26.7656 16.5824H26.679L18 16.625H16.625V21.9531C16.4325 23.4519 15.5993 24.0321 14.5625 24.446C14.2188 24.5849 14.1761 24.5092 13.875 24.5739V16.5837C13.6495 11.4866 15.4645 10.0195 16.8835 8.93462C17.2754 8.63349 18.4235 8.28562 20.0625 7.51699C21.432 6.87212 23.1342 5.71574 24.9616 3.94887ZM11.2116 15.7656C11.2061 16.0777 11.1085 16.2977 11.125 16.625V27.625H12.5C12.5 27.625 13.9712 27.6085 15.5511 26.9801C17.1296 26.3517 19.0367 24.8805 19.375 22.2969V19.375L26.7656 19.3324H26.8083C27.4118 19.2993 28.0039 19.5068 28.4549 19.9093C28.9059 20.3118 29.179 20.8767 29.2145 21.4801C29.209 21.5021 29.1457 22.0122 29.1292 22.125H23.5V24.875H28.7855C28.6397 25.9379 28.5064 26.6047 28.3551 27.625H23.5V30.375H27.9261C27.7636 31.0402 27.5027 31.6775 27.152 32.2656C26.7766 32.8775 26.4535 33.1085 26.1647 33.125H2.875V22.8551C5.10388 21.6726 6.48988 19.9717 7.38638 18.946C8.31588 17.8817 8.95388 17.076 9.57812 16.5397C9.9865 16.1905 10.6259 15.9911 11.2116 15.7656Z" fill="black"/>
</svg>
