<svg width="46" height="46" viewBox="0 0 46 46" fill="none" xmlns="http://www.w3.org/2000/svg">
<path d="M1.5 23H3.88889M23 1V3.44444M42.1111 23H44.5M7.71111 7.35556L9.38333 9.06667M38.2889 7.35556L36.6167 9.06667M17.5056 35.2222H28.4944M15.8333 32.7778C13.8278 31.2386 12.3464 29.0928 11.5989 26.6443C10.8514 24.1957 10.8757 21.5686 11.6685 19.135C12.4613 16.7014 13.9822 14.5847 16.016 13.0848C18.0497 11.5849 20.4931 10.7778 23 10.7778C25.5069 10.7778 27.9503 11.5849 29.984 13.0848C32.0178 14.5847 33.5387 16.7014 34.3315 19.135C35.1243 21.5686 35.1486 24.1957 34.4011 26.6443C33.6536 29.0928 32.1722 31.2386 30.1667 32.7778C29.234 33.7225 28.5317 34.8786 28.1167 36.1526C27.7017 37.4266 27.5856 38.7827 27.7778 40.1111C27.7778 41.4077 27.2744 42.6512 26.3784 43.5681C25.4824 44.4849 24.2671 45 23 45C21.7329 45 20.5176 44.4849 19.6216 43.5681C18.7256 42.6512 18.2222 41.4077 18.2222 40.1111C18.4144 38.7827 18.2983 37.4266 17.8833 36.1526C17.4683 34.8786 16.766 33.7225 15.8333 32.7778Z" stroke="black" stroke-width="2" stroke-linecap="round" stroke-linejoin="round"/>
</svg>
