<svg width="60" height="68" viewBox="0 0 30 34" fill="none" xmlns="http://www.w3.org/2000/svg">
<path d="M15 17C16.0312 17 16.9144 16.6668 17.6494 16.0004C18.3844 15.334 18.7512 14.5339 18.75 13.6C18.75 12.665 18.3825 11.8643 17.6475 11.1979C16.9125 10.5315 16.03 10.1989 15 10.2C13.9688 10.2 13.0856 10.5332 12.3506 11.1996C11.6156 11.866 11.2487 12.6661 11.25 13.6C11.25 14.535 11.6175 15.3357 12.3525 16.0021C13.0875 16.6685 13.97 17.0011 15 17ZM15 29.495C18.8125 26.3217 21.6406 23.4385 23.4844 20.8454C25.3281 18.2523 26.25 15.9505 26.25 13.94C26.25 10.8517 25.1637 8.3232 22.9912 6.3546C20.8187 4.386 18.155 3.40113 15 3.4C11.8438 3.4 9.17937 4.38487 7.00688 6.3546C4.83437 8.32433 3.74875 10.8528 3.75 13.94C3.75 15.9517 4.67188 18.254 6.51562 20.8471C8.35938 23.4402 11.1875 26.3228 15 29.495ZM15 34C9.96875 30.1183 6.21125 26.5132 3.7275 23.1846C1.24375 19.856 0.00125 16.7745 0 13.94C0 9.69 1.50813 6.30417 4.52437 3.7825C7.54063 1.26083 11.0325 0 15 0C18.9688 0 22.4612 1.26083 25.4775 3.7825C28.4937 6.30417 30.0012 9.69 30 13.94C30 16.7733 28.7575 19.8549 26.2725 23.1846C23.7875 26.5143 20.03 30.1195 15 34Z" fill="#FFFFFF"/>
</svg>
