<svg width="22" height="19" viewBox="0 0 22 19" fill="none" xmlns="http://www.w3.org/2000/svg">
<path d="M6 15C5.45 15 4.979 14.804 4.587 14.412C4.195 14.02 3.99934 13.5493 4 13V2C4 1.45 4.196 0.979002 4.588 0.587002C4.98 0.195002 5.45067 -0.000664969 6 1.69779e-06H11L13 2H20C20.55 2 21.021 2.196 21.413 2.588C21.805 2.98 22.0007 3.45067 22 4V13C22 13.55 21.804 14.021 21.412 14.413C21.02 14.805 20.5493 15.0007 20 15H6ZM6 13H20V4H12.175L10.175 2H6V13ZM19 19H2C1.45 19 0.979002 18.804 0.587002 18.412C0.195002 18.02 -0.000664969 17.5493 1.69779e-06 17V4H2V17H19V19ZM8 11H18L14.625 6.5L12 10L10.375 7.825L8 11Z" fill="#F5F5F5"/>
</svg>
