<svg width="33" height="22" viewBox="0 0 33 22" fill="none" xmlns="http://www.w3.org/2000/svg">
<path d="M1.83334 22C1.31389 22 0.878173 21.824 0.526173 21.472C0.174173 21.12 -0.00121588 20.6849 6.34372e-06 20.1667C6.34372e-06 19.6472 0.176006 19.2115 0.528006 18.8595C0.880006 18.5075 1.31512 18.3321 1.83334 18.3333H31.1667C31.6861 18.3333 32.1218 18.5093 32.4738 18.8613C32.8258 19.2133 33.0012 19.6484 33 20.1667C33 20.6861 32.824 21.1218 32.472 21.4738C32.12 21.8258 31.6849 22.0012 31.1667 22H1.83334ZM1.83334 12.8333C1.31389 12.8333 0.878173 12.6573 0.526173 12.3053C0.174173 11.9533 -0.00121588 11.5182 6.34372e-06 11C6.34372e-06 10.4806 0.176006 10.0448 0.528006 9.69283C0.880006 9.34083 1.31512 9.16545 1.83334 9.16667H31.1667C31.6861 9.16667 32.1218 9.34267 32.4738 9.69467C32.8258 10.0467 33.0012 10.4818 33 11C33 11.5194 32.824 11.9552 32.472 12.3072C32.12 12.6592 31.6849 12.8346 31.1667 12.8333H1.83334ZM1.83334 3.66667C1.31389 3.66667 0.878173 3.49067 0.526173 3.13867C0.174173 2.78667 -0.00121588 2.35156 6.34372e-06 1.83334C6.34372e-06 1.31389 0.176006 0.878173 0.528006 0.526173C0.880006 0.174173 1.31512 -0.00121588 1.83334 6.3437e-06H31.1667C31.6861 6.3437e-06 32.1218 0.176006 32.4738 0.528006C32.8258 0.880006 33.0012 1.31512 33 1.83334C33 2.35278 32.824 2.7885 32.472 3.1405C32.12 3.4925 31.6849 3.66789 31.1667 3.66667H1.83334Z" fill="#484747"/>
</svg>
