<svg width="19" height="20" viewBox="0 0 19 20" fill="none" xmlns="http://www.w3.org/2000/svg">
<path d="M18.5 14.42V17.956C18.5001 18.2092 18.4042 18.453 18.2316 18.6382C18.059 18.8234 17.8226 18.9363 17.57 18.954C17.133 18.984 16.776 19 16.5 19C7.663 19 0.5 11.837 0.5 3C0.5 2.724 0.515 2.367 0.546 1.93C0.563722 1.67744 0.676581 1.44101 0.861804 1.26841C1.04703 1.09581 1.29082 0.999886 1.544 1H5.08C5.20404 0.999875 5.3237 1.04586 5.41573 1.12902C5.50776 1.21218 5.5656 1.32658 5.578 1.45C5.601 1.68 5.622 1.863 5.642 2.002C5.84073 3.38892 6.248 4.73783 6.85 6.003C6.945 6.203 6.883 6.442 6.703 6.57L4.545 8.112C5.86445 11.1865 8.31455 13.6365 11.389 14.956L12.929 12.802C12.9919 12.714 13.0838 12.6509 13.1885 12.6237C13.2932 12.5964 13.4042 12.6068 13.502 12.653C14.767 13.2539 16.1156 13.6602 17.502 13.858C17.641 13.878 17.824 13.899 18.052 13.922C18.1752 13.9346 18.2894 13.9926 18.3724 14.0846C18.4553 14.1766 18.5002 14.2961 18.5 14.42Z" stroke="#FAFAFA"/>
</svg>
