<svg width="69" height="68" viewBox="0 0 69 68" fill="none" xmlns="http://www.w3.org/2000/svg">
<path d="M66.4348 0.635559C65.9166 0.27697 65.3128 0.0616518 64.6845 0.0113945C64.0563 -0.0388627 63.426 0.0777254 62.8573 0.349359L2.0397 28.9694C1.41983 29.2645 0.897962 29.7318 0.536382 30.3154C0.174802 30.899 -0.0112174 31.5743 0.000523358 32.2607C0.0118955 32.9467 0.220293 33.615 0.600873 34.1859C0.981454 34.7567 1.51816 35.2061 2.14703 35.4805L21.5013 43.9592V68L42.394 53.0818L59.4229 60.523C59.87 60.7355 60.3589 60.8455 60.8539 60.845C61.5115 60.8405 62.1552 60.6548 62.7142 60.3084C63.2067 60.0102 63.62 59.5976 63.919 59.1056C64.2179 58.6135 64.3937 58.0566 64.4314 57.4821L68.0089 3.81954C68.0465 3.19771 67.921 2.57685 67.6449 2.0184C67.3688 1.45996 66.9517 0.983286 66.4348 0.635559ZM57.6342 51.937L38.7807 43.673L50.1214 21.4924L22.7535 36.6968L12.2714 32.0818L60.4604 9.40045L57.6342 51.937Z" fill="white"/>
</svg>
