<svg width="19" height="19" viewBox="0 0 19 19" fill="none" xmlns="http://www.w3.org/2000/svg">
<path d="M9.73887 0.5C9.9665 0.5 10.1946 0.5 10.4222 0.5C10.4743 0.518709 10.5282 0.503564 10.5808 0.508464C11.0663 0.507127 11.543 0.581518 12.0152 0.686201C12.7488 0.849238 13.4486 1.10493 14.1159 1.44971C14.7405 1.77222 15.3182 2.16422 15.8492 2.62572C16.4737 3.16873 17.0132 3.78524 17.4635 4.47881C17.9807 5.27484 18.3611 6.13146 18.5981 7.05177C18.6881 7.4019 18.7625 7.75514 18.8048 8.11418C18.8253 8.28746 18.8324 8.46208 18.8306 8.63715C18.8355 8.68036 18.8208 8.72446 18.8391 8.76677C18.8391 9.10577 18.8391 9.44476 18.8391 9.7833C18.8208 9.82607 18.8355 9.87061 18.8306 9.91382C18.8364 10.5196 18.709 11.105 18.5469 11.6832C18.3014 12.5589 17.925 13.3764 17.4212 14.1332C17.1611 14.5243 16.8711 14.8927 16.5521 15.2388C15.8679 15.9814 15.079 16.5854 14.1876 17.058C13.2451 17.5583 12.2432 17.8706 11.1857 18.0055C10.9273 18.0385 10.6663 18.0496 10.4062 18.0675C10.122 18.0866 9.83999 18.0732 9.55801 18.0585C9.08628 18.034 8.61899 17.9672 8.1575 17.8639C7.40513 17.6955 6.6866 17.4353 6.00684 17.0714C5.88968 17.0086 5.785 16.9984 5.65938 17.0411C5.21259 17.193 4.7609 17.3311 4.31188 17.4759C3.28644 17.8064 2.25966 18.132 1.23422 18.4626C1.18611 18.4782 1.13622 18.4808 1.08767 18.4915C1.07119 18.4938 1.05337 18.4866 1.03911 18.5C1.01951 18.5 1.00036 18.4995 0.980758 18.5C0.96383 18.5004 0.975858 18.4884 0.972294 18.4831C1.21329 17.6826 1.49793 16.8968 1.76253 16.1043C2.00709 15.372 2.24496 14.6374 2.50377 13.9096C2.52916 13.8378 2.52248 13.7795 2.48417 13.7136C1.86632 12.6556 1.48234 11.5197 1.34158 10.3014C1.30238 9.96193 1.27743 9.62116 1.27921 9.27994C1.285 8.19481 1.4712 7.1422 1.86009 6.127C2.22224 5.18085 2.73274 4.32379 3.39023 3.55449C4.1034 2.72015 4.94443 2.04306 5.91151 1.52143C6.90443 0.985993 7.96105 0.657246 9.08004 0.528509C9.24486 0.509355 9.41191 0.508909 9.57851 0.507127C9.63107 0.503564 9.68586 0.518709 9.73887 0.5Z" fill="#FEFEFE"/>
<path d="M18.8248 8.63281C18.8297 8.63281 18.8346 8.63281 18.8395 8.6337C18.8395 8.67825 18.8395 8.7228 18.8395 8.7669C18.8039 8.72547 18.8297 8.67736 18.8248 8.63281Z" fill="#B7B6B6"/>
<path d="M18.8391 9.91684C18.8342 9.91773 18.8293 9.91818 18.8244 9.91773C18.8293 9.87319 18.8039 9.82508 18.8391 9.7832C18.8391 9.82819 18.8391 9.87229 18.8391 9.91684Z" fill="#B7B6B6"/>
<path d="M3.28555 16.2138C3.36707 15.9697 3.44769 15.7251 3.52966 15.481C3.73501 14.8694 3.93992 14.2574 4.1484 13.6466C4.17111 13.5803 4.16844 13.5335 4.12523 13.4738C3.93146 13.2061 3.76263 12.9232 3.60895 12.6305C3.43077 12.2911 3.28198 11.9396 3.16038 11.577C3.02852 11.1828 2.92963 10.7801 2.86994 10.3685C2.83697 10.1413 2.8147 9.91371 2.8 9.6843C2.78396 9.43752 2.7804 9.19073 2.79287 8.94484C2.82406 8.33234 2.92384 7.73097 3.10514 7.14431C3.23076 6.7385 3.38845 6.34605 3.58178 5.96786C3.84638 5.44935 4.16978 4.97093 4.54708 4.52815C4.66602 4.38872 4.78941 4.25374 4.91904 4.12501C5.21036 3.83591 5.52174 3.56908 5.85672 3.33076C6.21932 3.07284 6.60197 2.84967 7.00422 2.66124C7.44165 2.45633 7.89513 2.29641 8.36508 2.18371C8.70408 2.10219 9.04708 2.04651 9.39453 2.01221C9.75134 1.97702 10.1086 1.969 10.4654 1.98815C11.0498 2.01889 11.6236 2.11912 12.1849 2.28884C12.5969 2.41356 12.9952 2.57215 13.3782 2.76859C13.956 3.06438 14.4857 3.42965 14.9681 3.86531C15.4109 4.26488 15.798 4.71212 16.1316 5.20524C16.4764 5.71484 16.7508 6.26008 16.9575 6.84006C17.1179 7.28997 17.231 7.75102 17.3009 8.22276C17.3299 8.4192 17.349 8.61743 17.3611 8.81655C17.3727 9.00498 17.3771 9.19296 17.3753 9.38139C17.3709 9.83041 17.321 10.275 17.2332 10.7151C17.1196 11.2822 16.9397 11.8278 16.6942 12.3512C16.4296 12.9161 16.0973 13.4386 15.7 13.9201C15.5017 14.1602 15.2879 14.3856 15.0612 14.5977C14.5939 15.0356 14.0772 15.4057 13.5119 15.7082C13.135 15.91 12.7435 16.0779 12.3372 16.2102C11.9581 16.3341 11.571 16.4272 11.1759 16.4851C10.9487 16.518 10.7211 16.5394 10.4917 16.555C10.2507 16.5711 10.0097 16.5724 9.76872 16.5621C9.42349 16.5474 9.08049 16.5082 8.7406 16.4437C8.1918 16.339 7.66171 16.1759 7.15033 15.9505C6.79441 15.7937 6.45408 15.6093 6.128 15.3982C6.08346 15.3692 6.04738 15.3652 5.99749 15.3812C5.27585 15.6147 4.55332 15.8458 3.83079 16.077C3.66196 16.1309 3.49269 16.1822 3.32341 16.2347C3.30114 16.2445 3.28466 16.2454 3.28555 16.2138Z" fill="#2BB741"/>
<path d="M12.4481 13.671C12.2045 13.6724 11.9978 13.6194 11.7933 13.5583C11.4 13.4416 11.0187 13.2915 10.6409 13.1325C10.4267 13.0425 10.2115 12.9534 10.0026 12.851C9.51659 12.6135 9.07425 12.3102 8.65864 11.9658C8.38914 11.7422 8.13746 11.4994 7.89825 11.2451C7.42829 10.7453 7.01045 10.2036 6.64652 9.6214C6.51867 9.41693 6.37746 9.22093 6.2603 9.00979C6.04292 8.61823 5.8634 8.21153 5.76718 7.77186C5.72977 7.60125 5.70705 7.42975 5.70126 7.25424C5.69101 6.96425 5.72442 6.68139 5.8046 6.40342C5.91419 6.023 6.11063 5.69336 6.38414 5.40783C6.45096 5.33789 6.51867 5.26885 6.58994 5.20336C6.76902 5.03854 6.97972 4.9646 7.2216 4.98197C7.38686 4.99355 7.55124 5.01894 7.71828 5.01538C7.80693 5.0136 7.87731 5.06082 7.93299 5.1263C8.0154 5.22252 8.06039 5.33923 8.10405 5.45638C8.30361 5.9936 8.4956 6.5335 8.70274 7.06804C8.72457 7.12462 8.74684 7.18074 8.75976 7.24088C8.77936 7.33353 8.75441 7.41461 8.7161 7.49613C8.63102 7.67921 8.50718 7.83467 8.37132 7.98212C8.27154 8.09036 8.17309 8.19906 8.06707 8.30151C7.94413 8.42045 7.93344 8.53671 8.01273 8.68371C8.14815 8.93539 8.29916 9.17772 8.46398 9.41114C8.672 9.70603 8.89874 9.98622 9.15711 10.2388C9.56603 10.6379 10.0177 10.98 10.5269 11.2424C10.6895 11.3262 10.8538 11.4063 11.0178 11.4879C11.0351 11.4963 11.053 11.5039 11.0708 11.511C11.2111 11.568 11.3332 11.5369 11.4329 11.4277C11.6347 11.2072 11.8392 10.9885 12.029 10.7573C12.0815 10.6932 12.1341 10.6286 12.1835 10.5618C12.2842 10.4254 12.3982 10.3787 12.5853 10.4375C12.7555 10.4909 12.9105 10.5791 13.0678 10.6602C13.331 10.7965 13.5921 10.9373 13.8531 11.0771C14.0607 11.1885 14.2665 11.303 14.4741 11.4139C14.5943 11.4781 14.6482 11.5738 14.6429 11.7115C14.6335 11.9596 14.5841 12.1988 14.5079 12.4349C14.4536 12.6033 14.3827 12.7605 14.2611 12.8915C14.1663 12.9935 14.062 13.0844 13.948 13.1646C13.6714 13.3592 13.3751 13.5133 13.0442 13.5913C12.9372 13.6162 12.825 13.6198 12.7167 13.6403C12.6183 13.6577 12.5207 13.6759 12.4481 13.671Z" fill="#FEFEFE"/>
</svg>
