<svg width="39" height="41" viewBox="0 0 39 41" fill="none" xmlns="http://www.w3.org/2000/svg">
<path d="M0 24.5C0 27.1 1.64211 29.3 4.10526 30.1V36.5H0V40.5H12.3158V36.5H8.21053V30.1C10.6737 29.3 12.3158 27.1 12.3158 24.5V8.5H0V24.5ZM4.10526 12.5H8.21053V18.5H4.10526V12.5ZM36.1263 13.5L34.0737 12.9C33.4579 12.7 32.8421 11.9 32.8421 11.1V2.5C32.8421 1.5 31.8158 0.5 30.7895 0.5H24.6316C23.4 0.5 22.5789 1.5 22.5789 2.5V11.1C22.5789 11.9 21.9632 12.7 21.1421 13.1L19.2947 13.7C17.6526 14.3 16.4211 15.7 16.4211 17.5V36.5C16.4211 38.7 18.2684 40.5 20.5263 40.5H34.8947C37.1526 40.5 39 38.7 39 36.5V17.3C39 15.7 37.9737 14.1 36.1263 13.5ZM26.6842 4.5H28.7368V6.5H26.6842V4.5ZM20.5263 17.3L22.3737 16.7C25.0421 15.9 26.6842 13.7 26.6842 11.1V10.5H28.7368V11.1C28.7368 13.7 30.3789 15.9 32.8421 16.7L34.8947 17.3V20.5H20.5263V17.3ZM34.8947 36.5H20.5263V32.5H34.8947V36.5Z" fill="#6B5276"/>
</svg>
